<svg xmlns="http://www.w3.org/2000/svg" viewBox="0 0 512 512" role="img" aria-labelledby="title desc">
  <title id="title">ForgeTracker</title>
  <desc id="desc">FT monogram in een donkere tracker-interface stijl.</desc>
  <defs>
    <linearGradient id="bg" x1="0" y1="0" x2="1" y2="1">
      <stop offset="0" stop-color="#070a0e"/>
      <stop offset="1" stop-color="#121b24"/>
    </linearGradient>
    <linearGradient id="accent" x1="0" y1="0" x2="1" y2="1">
      <stop offset="0" stop-color="#53ffb5"/>
      <stop offset="1" stop-color="#4cc9ff"/>
    </linearGradient>
    <filter id="glow" x="-40%" y="-40%" width="180%" height="180%">
      <feGaussianBlur stdDeviation="12" result="blur"/>
      <feMerge><feMergeNode in="blur"/><feMergeNode in="SourceGraphic"/></feMerge>
    </filter>
  </defs>
  <rect width="512" height="512" rx="112" fill="url(#bg)"/>
  <rect x="38" y="38" width="436" height="436" rx="88" fill="none" stroke="#263340" stroke-width="12"/>
  <g opacity=".55" stroke="#263340" stroke-width="6">
    <path d="M82 128h348M82 192h348M82 256h348M82 320h348M82 384h348"/>
    <path d="M128 82v348M208 82v348M288 82v348M368 82v348"/>
  </g>
  <rect x="82" y="224" width="348" height="64" rx="18" fill="#153b31" opacity=".92"/>
  <path d="M130 352V150h142v42h-90v40h78v42h-78v78zm164 0V192h-54v-42h162v42h-54v160z" fill="url(#accent)" filter="url(#glow)"/>
</svg>
